<svg id="Layer_1" data-name="Layer 1" xmlns="http://www.w3.org/2000/svg" viewBox="0 0 512 512"><title>bitcoin-coin-flat</title><rect id="label" width="512" height="512" fill="#f1b65e"/><path id="bitcoin" d="M259.24,307.55h-8.36v-6.76a4.46,4.46,0,0,0-8.92,0v6.76H228.9V204.17H242v5.33a4.46,4.46,0,0,0,8.92,0v-5.33h8.36v5.33a4.46,4.46,0,0,0,8.92,0v-5.33h4.24c10.89,0,18.21,11.09,18.21,21.46,0,11-9.9,21.46-20.38,21.46H233.08V256H272.4c16.19,0,27.93,10.84,27.93,25.77s-11.75,25.78-27.93,25.78h-4.24v-6.76a4.46,4.46,0,0,0-8.92,0ZM385.35,256A129.35,129.35,0,1,1,256,126.65,129.5,129.5,0,0,1,385.35,256Zm-29.63-39-8.31,3.25a97,97,0,0,1,4.8,16.34l8.75-1.75A106.37,106.37,0,0,0,355.72,217Zm-84.57-58a98.64,98.64,0,0,1,16.54,4.06l2.87-8.44a107.09,107.09,0,0,0-18.05-4.44Zm-35.65-8.12,1.7,8.76a98.56,98.56,0,0,1,16.94-1.78L254,149A107.69,107.69,0,0,0,235.5,150.91Zm-34.58,13.28,4.6,7.65a97.22,97.22,0,0,1,15.3-7.47l-3.2-8.33A106.67,106.67,0,0,0,200.93,164.18Zm-46,56.6,8.42,2.94a97.47,97.47,0,0,1,7-15.55l-7.79-4.36A106.82,106.82,0,0,0,154.88,220.78ZM149,257.33l8.92-.09V256a99,99,0,0,1,1.26-15.77l-8.81-1.42A108.07,108.07,0,0,0,149,256Zm6.83,36.41,8.35-3.14a98,98,0,0,1-4.58-16.4l-8.77,1.64A107,107,0,0,0,155.8,293.74Zm25.65,26.06a98.65,98.65,0,0,1-9.93-13.85l-7.67,4.55a107.86,107.86,0,0,0,10.82,15.11Zm10.29-138-5.85-6.73A108.53,108.53,0,0,0,173,188.44l6.92,5.64A99.42,99.42,0,0,1,191.74,181.83ZM207.64,341.4a97.89,97.89,0,0,1-14-9.67l-5.68,6.88a107.27,107.27,0,0,0,15.31,10.55Zm32,11.36a98.46,98.46,0,0,1-16.49-4.27l-3,8.41a107.05,107.05,0,0,0,18,4.66Zm19.61-36.3v5.92a4.46,4.46,0,0,0,8.92,0v-5.92h4.24c21,0,36.85-14.92,36.85-34.7,0-14.74-8.8-26.78-22-32,7.29-5.7,12.27-14.69,12.27-24.19,0-14.67-10.9-30.38-27.13-30.38h-4.24V187.9a4.46,4.46,0,0,0-8.92,0v7.34h-8.36V187.9a4.46,4.46,0,0,0-8.92,0v7.34H224.44a4.46,4.46,0,0,0-4.46,4.46V312a4.46,4.46,0,0,0,4.46,4.46H242v5.92a4.46,4.46,0,0,0,8.92,0v-5.92Zm15.94,44.87-1.59-8.78a99,99,0,0,1-17,1.57l.06,8.92A108.43,108.43,0,0,0,275.17,361.34Zm34.74-12.84-4.5-7.7a98.24,98.24,0,0,1-15.4,7.28l3.09,8.36A106.65,106.65,0,0,0,309.91,348.5Zm7.52-169,5.59-7a107.57,107.57,0,0,0-15.44-10.35l-4.3,7.81A98.45,98.45,0,0,1,317.43,179.47Zm20.75,145.12-6.85-5.72a99.11,99.11,0,0,1-12,12.09l5.77,6.81A108.84,108.84,0,0,0,338.19,324.59ZM339.84,205l7.62-4.64a107.56,107.56,0,0,0-11-15l-6.7,5.89A98.34,98.34,0,0,1,339.84,205Zm16.83,87.49-8.39-3a98.27,98.27,0,0,1-7.19,15.45l7.74,4.45A107.51,107.51,0,0,0,356.67,292.48Zm4.78-18A108,108,0,0,0,363,256q0-1.35,0-2.7l-8.92.23c0,.82,0,1.65,0,2.47a99,99,0,0,1-1.46,17Z" fill="#fff"/></svg>